<?xml version="1.0" encoding="UTF-8"?>
<svg width="175px" height="67px" viewBox="0 0 175 67" version="1.1" xmlns="http://www.w3.org/2000/svg" xmlns:xlink="http://www.w3.org/1999/xlink">
    <defs></defs>
    <g id="Page-1" stroke="none" stroke-width="1" fill="none" fill-rule="evenodd">
        <g id="1.3_vi_home_page_1440" transform="translate(-78.000000, -18.000000)">
            <g id="header">
                <g id="vi_logo" transform="translate(80.000000, 20.000000)">
                    <path d="M31.1,62.4 C48.3,62.4 62.2,48.5 62.2,31.2 C62.2,14 48.3,0 31.1,0 C13.9,0.1 0,14 0,31.2 C0,48.4 13.9,62.4 31.1,62.4" id="Fill-1" fill="#FFF200"></path>
                    <path d="M31,63 C48.1,63 62,48.9 62,31.5 C62,14.1 48.1,0 31,0 C13.9,0 0,14.1 0,31.5 C0,48.9 13.9,63 31,63 L31,63 L31,63 L31,63 L31,63 Z" id="Stroke-2" stroke="#000000" stroke-width="4"></path>
                    <path d="M22.4,44.6 L28.4,44.6 L36.7,24.1 L30.5,24.1 L27.9,30.6 C27.1,32.7 26.2,35.1 25.4,37.1 L25.4,37.1 C24.7,35 23.9,32.8 23.1,30.6 L20.7,24 L14,24 L22.4,44.6 L22.4,44.6 L22.4,44.6 L22.4,44.6 L22.4,44.6 Z M45,44.5 L45,24.1 L39,24.1 L39,44.5 L45,44.5 Z" id="Fill-4" fill="#000000"></path>
                    <path d="M39,21.3 C39,21.3 44.9879494,21.4084556 45,21.3 C45.0120506,21.1915444 45,15 45,15 L39,15 L39,21.3 Z" id="Fill-5" fill="#000000"></path>
                    <path d="M73,45 L75.8,45 L75.8,36 L73,36 L73,45 L73,45 L73,45 L73,45 Z M78.1,45 L80.9,45 L80.9,38.9 C81.4,38.5 82.1,38.1 82.8,38.1 C83.2,38.1 83.5,38.2 83.8,38.5 C84,38.8 84.1,39.1 84.1,39.8 L84.1,45 L86.9,45 L86.9,39.4 C86.9,38.1 86.7,37.3 86.1,36.7 C85.5,36.1 84.7,35.8 83.7,35.8 C82.6,35.8 81.6,36.3 80.9,36.8 L80.9,36.8 L80.9,36 L78.1,36 L78.1,45 L78.1,45 L78.1,45 L78.1,45 L78.1,45 Z M90.6,44.3 C91.2,44.9 92,45.2 92.9,45.2 C93.7,45.2 94.5,45 94.9,44.7 L94.9,42.5 C94.5,42.7 94,42.9 93.6,42.9 C92.8,42.9 92.6,42.2 92.6,41.4 L92.6,38.4 L95,38.4 L95,36 L92.6,36 L92.6,33.2 L89.8,33.7 L89.8,36 L88.3,36 L88.3,38.3 L89.8,38.3 L89.8,41.6 C89.8,43.1 90.1,43.8 90.6,44.3 L90.6,44.3 L90.6,44.3 L90.6,44.3 L90.6,44.3 Z M105,41.2 C105,41 105.1,40.6 105.1,40.2 C105.1,37.2 103,35.7 100.8,35.7 C98.3,35.7 96.1,37.6 96.1,40.5 C96.1,43.3 98.2,45.2 101.2,45.2 C102.4,45.2 103.8,44.9 104.6,44.4 L104.6,42.1 C103.6,42.7 102.5,43.1 101.5,43.1 C100.2,43.1 99.2,42.5 98.9,41.3 L105,41.3 L105,41.2 L105,41.2 L105,41.2 L105,41.2 Z M100.7,37.9 C101.6,37.9 102.3,38.5 102.5,39.5 L98.9,39.5 C99,38.5 99.8,37.9 100.7,37.9 L100.7,37.9 L100.7,37.9 L100.7,37.9 L100.7,37.9 Z M106.8,45 L109.6,45 L109.6,31 L106.8,31 L106.8,45 L106.8,45 L106.8,45 L106.8,45 Z M111.9,45 L114.7,45 L114.7,31 L111.9,31 L111.9,45 L111.9,45 L111.9,45 L111.9,45 Z M117,45 L119.8,45 L119.8,36 L117,36 L117,45 L117,45 L117,45 L117,45 Z M122.9,48.6 C123.7,49 124.8,49.3 126,49.3 C128.9,49.3 130.8,47.7 130.8,44.9 L130.8,36 L128.6,36.4 C128,36.1 127.2,35.9 126.3,35.9 C123.5,35.9 121.6,38 121.6,40.6 C121.6,43.3 123.6,45 125.8,45 C126.6,45 127.4,44.8 127.9,44.4 L127.9,44.4 L127.9,44.9 C127.9,46.2 127.1,46.9 125.7,46.9 C124.7,46.9 123.7,46.6 122.8,46 L122.8,48.6 L122.9,48.6 L122.9,48.6 L122.9,48.6 L122.9,48.6 Z M124.5,40.4 C124.5,39.2 125.2,38.2 126.6,38.2 C127.1,38.2 127.6,38.3 128,38.5 L128,42.3 C127.6,42.5 127.1,42.7 126.6,42.7 C125.3,42.7 124.5,41.7 124.5,40.4 L124.5,40.4 L124.5,40.4 L124.5,40.4 L124.5,40.4 Z M141.5,41.2 C141.5,41 141.6,40.6 141.6,40.2 C141.6,37.2 139.5,35.7 137.3,35.7 C134.8,35.7 132.6,37.6 132.6,40.5 C132.6,43.3 134.7,45.2 137.7,45.2 C138.9,45.2 140.2,44.9 141.1,44.4 L141.1,42.1 C140.1,42.7 139,43.1 138,43.1 C136.7,43.1 135.7,42.5 135.4,41.3 L141.5,41.3 L141.5,41.2 L141.5,41.2 L141.5,41.2 L141.5,41.2 Z M137.2,37.9 C138.1,37.9 138.8,38.5 139,39.5 L135.4,39.5 C135.6,38.5 136.4,37.9 137.2,37.9 L137.2,37.9 L137.2,37.9 L137.2,37.9 L137.2,37.9 Z M143.4,45 L146.2,45 L146.2,38.9 C146.7,38.5 147.4,38.1 148.1,38.1 C148.5,38.1 148.8,38.2 149.1,38.5 C149.3,38.8 149.4,39.1 149.4,39.8 L149.4,45 L152.2,45 L152.2,39.4 C152.2,38.1 152,37.3 151.4,36.7 C150.8,36.1 150,35.8 149,35.8 C147.9,35.8 146.9,36.3 146.2,36.8 L146.2,36.8 L146.2,36 L143.4,36 L143.4,45 L143.4,45 L143.4,45 L143.4,45 L143.4,45 Z M153.9,40.5 C153.9,43.2 156,45.2 158.9,45.2 C159.9,45.2 161,45 161.9,44.5 L161.9,42 C161.1,42.6 160.1,42.9 159.3,42.9 C157.8,42.9 156.8,41.9 156.8,40.6 C156.8,39.2 157.8,38.2 159.3,38.2 C160.2,38.2 161,38.5 161.8,39 L161.8,36.4 C161.1,36 160.1,35.8 159.1,35.8 C156.2,35.8 153.9,37.7 153.9,40.5 L153.9,40.5 L153.9,40.5 L153.9,40.5 L153.9,40.5 Z M172.2,41.2 C172.2,41 172.3,40.6 172.3,40.2 C172.3,37.2 170.2,35.7 168,35.7 C165.5,35.7 163.3,37.6 163.3,40.5 C163.3,43.3 165.4,45.2 168.4,45.2 C169.6,45.2 171,44.9 171.8,44.4 L171.8,42.1 C170.8,42.7 169.7,43.1 168.7,43.1 C167.4,43.1 166.4,42.5 166.1,41.3 L172.2,41.3 L172.2,41.2 L172.2,41.2 L172.2,41.2 L172.2,41.2 Z M167.9,37.9 C168.8,37.9 169.5,38.5 169.7,39.5 L166,39.5 C166.3,38.5 167,37.9 167.9,37.9 L167.9,37.9 L167.9,37.9 L167.9,37.9 L167.9,37.9 Z" id="Fill-6" fill="#000000"></path>
                    <path d="M73,34.8 L75.8,34.8 L75.8,32 L73,32 L73,34.8 L73,34.8 L73,34.8 L73,34.8 Z M117,34.8 L119.8,34.8 L119.8,32 L117,32 L117,34.8 L117,34.8 L117,34.8 L117,34.8 Z" id="Fill-7" fill="#000000"></path>
                    <path d="M76.7,29 L79.4,29 L83.1,20 L80.3,20 L79.2,22.9 C78.8,23.8 78.4,24.9 78.1,25.8 L78.1,25.8 C77.8,24.9 77.4,23.9 77.1,22.9 L75.9,20 L73,20 L76.7,29 L76.7,29 L76.7,29 L76.7,29 L76.7,29 Z M84.3,29 L87.1,29 L87.1,20 L84.3,20 L84.3,29 L84.3,29 L84.3,29 L84.3,29 Z M88.9,24.7 C88.9,27.5 90.9,29.2 93.1,29.2 C94,29.2 94.8,28.9 95.4,28.5 L95.4,28.5 L95.4,29 L98.1,29 L98.1,15 L95.3,15 L95.3,20.1 L95.3,20.1 C94.8,19.9 94.3,19.8 93.6,19.8 C90.9,19.8 88.9,21.8 88.9,24.7 L88.9,24.7 L88.9,24.7 L88.9,24.7 L88.9,24.7 Z M91.7,24.6 C91.7,23.2 92.5,22.1 94,22.1 C94.6,22.1 95,22.2 95.4,22.4 L95.4,26.4 C95,26.7 94.4,26.9 93.8,26.9 C92.4,26.9 91.7,25.9 91.7,24.6 L91.7,24.6 L91.7,24.6 L91.7,24.6 L91.7,24.6 Z M108.9,25.2 C108.9,25 109,24.6 109,24.2 C109,21.2 106.9,19.7 104.7,19.7 C102.2,19.7 100,21.6 100,24.5 C100,27.3 102.1,29.2 105.1,29.2 C106.3,29.2 107.7,28.9 108.5,28.4 L108.5,26.1 C107.5,26.7 106.4,27.1 105.4,27.1 C104.1,27.1 103.1,26.5 102.8,25.3 L108.9,25.3 L108.9,25.2 L108.9,25.2 L108.9,25.2 L108.9,25.2 Z M104.6,21.9 C105.5,21.9 106.2,22.5 106.4,23.5 L102.8,23.5 C103,22.5 103.7,21.9 104.6,21.9 L104.6,21.9 L104.6,21.9 L104.6,21.9 L104.6,21.9 Z M113,24.5 C113,23.2 114,22.2 115.2,22.2 C116.4,22.2 117.4,23.2 117.4,24.5 C117.4,25.8 116.4,26.8 115.2,26.8 C114,26.8 113,25.8 113,24.5 L113,24.5 L113,24.5 L113,24.5 L113,24.5 Z M110.2,24.5 C110.2,27.2 112.3,29.2 115.2,29.2 C118.1,29.2 120.2,27.1 120.2,24.5 C120.2,21.9 118.1,19.8 115.2,19.8 C112.3,19.8 110.2,21.8 110.2,24.5 L110.2,24.5 L110.2,24.5 L110.2,24.5 L110.2,24.5 Z" id="Fill-8" fill="#000000"></path>
                    <polygon id="Fill-9" fill="#000000" points="84.5 18.7999992 87 18.7999992 87 16 84.5 16"></polygon>
                </g>
            </g>
        </g>
    </g>
</svg>